<mxfile host="Electron" agent="Mozilla/5.0 (Macintosh; Intel Mac OS X 10_15_7) AppleWebKit/537.36 (KHTML, like Gecko) draw.io/25.0.2 Chrome/128.0.6613.186 Electron/32.2.5 Safari/537.36" version="25.0.2" pages="3">
  <diagram name="view-large-device" id="9iGuxfsh0xyPF6sXq_xX">
    <mxGraphModel dx="2396" dy="1087" grid="1" gridSize="10" guides="1" tooltips="1" connect="1" arrows="1" fold="1" page="1" pageScale="1" pageWidth="850" pageHeight="1100" math="0" shadow="0">
      <root>
        <mxCell id="0" />
        <mxCell id="1" parent="0" />
        <mxCell id="WNq93PNC-Jaa3culsKuI-1" value="" style="rounded=0;whiteSpace=wrap;html=1;" vertex="1" parent="1">
          <mxGeometry x="40" y="40" width="760" height="760" as="geometry" />
        </mxCell>
        <mxCell id="WNq93PNC-Jaa3culsKuI-2" value="" style="rounded=0;whiteSpace=wrap;html=1;" vertex="1" parent="1">
          <mxGeometry x="40" y="320" width="170" height="480" as="geometry" />
        </mxCell>
        <mxCell id="WNq93PNC-Jaa3culsKuI-5" style="rounded=0;orthogonalLoop=1;jettySize=auto;html=1;entryX=0;entryY=0;entryDx=0;entryDy=0;" edge="1" parent="1" source="WNq93PNC-Jaa3culsKuI-4" target="WNq93PNC-Jaa3culsKuI-2">
          <mxGeometry relative="1" as="geometry" />
        </mxCell>
        <mxCell id="WNq93PNC-Jaa3culsKuI-4" value="sidebar" style="text;html=1;align=center;verticalAlign=middle;whiteSpace=wrap;rounded=0;" vertex="1" parent="1">
          <mxGeometry x="-60" y="290" width="60" height="30" as="geometry" />
        </mxCell>
        <mxCell id="WNq93PNC-Jaa3culsKuI-6" value="Intro Image" style="rounded=0;whiteSpace=wrap;html=1;" vertex="1" parent="1">
          <mxGeometry x="40" y="40" width="760" height="280" as="geometry" />
        </mxCell>
        <mxCell id="WNq93PNC-Jaa3culsKuI-7" value="" style="rounded=0;whiteSpace=wrap;html=1;" vertex="1" parent="1">
          <mxGeometry x="210" y="320" width="590" height="480" as="geometry" />
        </mxCell>
        <mxCell id="WNq93PNC-Jaa3culsKuI-9" style="rounded=0;orthogonalLoop=1;jettySize=auto;html=1;exitX=0;exitY=1;exitDx=0;exitDy=0;entryX=1;entryY=0.25;entryDx=0;entryDy=0;" edge="1" parent="1" source="WNq93PNC-Jaa3culsKuI-8" target="WNq93PNC-Jaa3culsKuI-7">
          <mxGeometry relative="1" as="geometry" />
        </mxCell>
        <mxCell id="WNq93PNC-Jaa3culsKuI-8" value="Content" style="text;html=1;align=center;verticalAlign=middle;whiteSpace=wrap;rounded=0;" vertex="1" parent="1">
          <mxGeometry x="840" y="330" width="60" height="30" as="geometry" />
        </mxCell>
        <mxCell id="WNq93PNC-Jaa3culsKuI-10" value="Title" style="text;html=1;align=center;verticalAlign=middle;whiteSpace=wrap;rounded=0;fontSize=22;fontStyle=1" vertex="1" parent="1">
          <mxGeometry x="460" y="330" width="60" height="30" as="geometry" />
        </mxCell>
        <mxCell id="WNq93PNC-Jaa3culsKuI-12" value="Content" style="text;html=1;align=center;verticalAlign=middle;whiteSpace=wrap;rounded=0;" vertex="1" parent="1">
          <mxGeometry x="460" y="450" width="60" height="30" as="geometry" />
        </mxCell>
      </root>
    </mxGraphModel>
  </diagram>
  <diagram name="view-small-device" id="xMQq_1pFi7UcHFSBB0Ce">
    <mxGraphModel dx="2164" dy="924" grid="1" gridSize="10" guides="1" tooltips="1" connect="1" arrows="1" fold="1" page="1" pageScale="1" pageWidth="850" pageHeight="1100" math="0" shadow="0">
      <root>
        <mxCell id="J94wZdpRFHRRezuluaMw-0" />
        <mxCell id="J94wZdpRFHRRezuluaMw-1" parent="J94wZdpRFHRRezuluaMw-0" />
        <mxCell id="J94wZdpRFHRRezuluaMw-2" value="" style="rounded=0;whiteSpace=wrap;html=1;" vertex="1" parent="J94wZdpRFHRRezuluaMw-1">
          <mxGeometry x="40" y="40" width="760" height="760" as="geometry" />
        </mxCell>
        <mxCell id="J94wZdpRFHRRezuluaMw-5" value="Menu button" style="text;html=1;align=center;verticalAlign=middle;whiteSpace=wrap;rounded=0;" vertex="1" parent="J94wZdpRFHRRezuluaMw-1">
          <mxGeometry x="-110" y="70" width="100" height="30" as="geometry" />
        </mxCell>
        <mxCell id="J94wZdpRFHRRezuluaMw-6" value="Intro Image" style="rounded=0;whiteSpace=wrap;html=1;" vertex="1" parent="J94wZdpRFHRRezuluaMw-1">
          <mxGeometry x="40" y="40" width="760" height="280" as="geometry" />
        </mxCell>
        <mxCell id="J94wZdpRFHRRezuluaMw-7" value="" style="rounded=0;whiteSpace=wrap;html=1;" vertex="1" parent="J94wZdpRFHRRezuluaMw-1">
          <mxGeometry x="40" y="320" width="760" height="480" as="geometry" />
        </mxCell>
        <mxCell id="J94wZdpRFHRRezuluaMw-8" style="rounded=0;orthogonalLoop=1;jettySize=auto;html=1;exitX=0;exitY=1;exitDx=0;exitDy=0;entryX=1;entryY=0.25;entryDx=0;entryDy=0;" edge="1" parent="J94wZdpRFHRRezuluaMw-1" source="J94wZdpRFHRRezuluaMw-9" target="J94wZdpRFHRRezuluaMw-7">
          <mxGeometry relative="1" as="geometry" />
        </mxCell>
        <mxCell id="J94wZdpRFHRRezuluaMw-9" value="Content" style="text;html=1;align=center;verticalAlign=middle;whiteSpace=wrap;rounded=0;" vertex="1" parent="J94wZdpRFHRRezuluaMw-1">
          <mxGeometry x="840" y="330" width="60" height="30" as="geometry" />
        </mxCell>
        <mxCell id="J94wZdpRFHRRezuluaMw-10" value="Title" style="text;html=1;align=center;verticalAlign=middle;whiteSpace=wrap;rounded=0;fontSize=22;fontStyle=1" vertex="1" parent="J94wZdpRFHRRezuluaMw-1">
          <mxGeometry x="395" y="330" width="60" height="30" as="geometry" />
        </mxCell>
        <mxCell id="J94wZdpRFHRRezuluaMw-11" value="Content" style="text;html=1;align=center;verticalAlign=middle;whiteSpace=wrap;rounded=0;" vertex="1" parent="J94wZdpRFHRRezuluaMw-1">
          <mxGeometry x="395" y="450" width="60" height="30" as="geometry" />
        </mxCell>
        <mxCell id="T9tAxu7Zx60UVygp0qAM-0" value="" style="html=1;verticalLabelPosition=bottom;align=center;labelBackgroundColor=#ffffff;verticalAlign=top;strokeWidth=2;strokeColor=#0080F0;shadow=0;dashed=0;shape=mxgraph.ios7.icons.most_viewed;pointerEvents=1" vertex="1" parent="J94wZdpRFHRRezuluaMw-1">
          <mxGeometry x="60" y="70" width="28.2" height="22.8" as="geometry" />
        </mxCell>
        <mxCell id="J94wZdpRFHRRezuluaMw-4" style="rounded=0;orthogonalLoop=1;jettySize=auto;html=1;entryX=-0.071;entryY=0.57;entryDx=0;entryDy=0;entryPerimeter=0;" edge="1" parent="J94wZdpRFHRRezuluaMw-1" source="J94wZdpRFHRRezuluaMw-5" target="T9tAxu7Zx60UVygp0qAM-0">
          <mxGeometry relative="1" as="geometry">
            <mxPoint x="40" y="320" as="targetPoint" />
          </mxGeometry>
        </mxCell>
      </root>
    </mxGraphModel>
  </diagram>
  <diagram id="flZqrjMDe7dWYoabQUkf" name="mobile-menu">
    <mxGraphModel dx="1827" dy="708" grid="1" gridSize="10" guides="1" tooltips="1" connect="1" arrows="1" fold="1" page="1" pageScale="1" pageWidth="850" pageHeight="1100" math="0" shadow="0">
      <root>
        <mxCell id="0" />
        <mxCell id="1" parent="0" />
        <mxCell id="MS3aq6HGt0ye1dTQ6bPK-1" value="" style="rounded=0;whiteSpace=wrap;html=1;fontColor=#FF3333;strokeColor=#FF3333;" vertex="1" parent="1">
          <mxGeometry x="40" y="40" width="760" height="760" as="geometry" />
        </mxCell>
        <mxCell id="MS3aq6HGt0ye1dTQ6bPK-2" value="Menu button" style="text;html=1;align=center;verticalAlign=middle;whiteSpace=wrap;rounded=0;" vertex="1" parent="1">
          <mxGeometry x="-110" y="70" width="100" height="30" as="geometry" />
        </mxCell>
        <mxCell id="MS3aq6HGt0ye1dTQ6bPK-3" value="Intro Image" style="rounded=0;whiteSpace=wrap;html=1;" vertex="1" parent="1">
          <mxGeometry x="40" y="800" width="760" height="280" as="geometry" />
        </mxCell>
        <mxCell id="MS3aq6HGt0ye1dTQ6bPK-4" value="" style="rounded=0;whiteSpace=wrap;html=1;" vertex="1" parent="1">
          <mxGeometry x="40" y="1080" width="760" height="480" as="geometry" />
        </mxCell>
        <mxCell id="MS3aq6HGt0ye1dTQ6bPK-5" style="rounded=0;orthogonalLoop=1;jettySize=auto;html=1;exitX=0;exitY=1;exitDx=0;exitDy=0;entryX=1;entryY=0.25;entryDx=0;entryDy=0;" edge="1" parent="1" source="MS3aq6HGt0ye1dTQ6bPK-6" target="MS3aq6HGt0ye1dTQ6bPK-4">
          <mxGeometry relative="1" as="geometry" />
        </mxCell>
        <mxCell id="MS3aq6HGt0ye1dTQ6bPK-6" value="Content" style="text;html=1;align=center;verticalAlign=middle;whiteSpace=wrap;rounded=0;" vertex="1" parent="1">
          <mxGeometry x="850" y="1150" width="60" height="30" as="geometry" />
        </mxCell>
        <mxCell id="MS3aq6HGt0ye1dTQ6bPK-7" value="Title" style="text;html=1;align=center;verticalAlign=middle;whiteSpace=wrap;rounded=0;fontSize=22;fontStyle=1" vertex="1" parent="1">
          <mxGeometry x="395" y="1090" width="60" height="30" as="geometry" />
        </mxCell>
        <mxCell id="MS3aq6HGt0ye1dTQ6bPK-8" value="Content" style="text;html=1;align=center;verticalAlign=middle;whiteSpace=wrap;rounded=0;" vertex="1" parent="1">
          <mxGeometry x="395" y="1210" width="60" height="30" as="geometry" />
        </mxCell>
        <mxCell id="MS3aq6HGt0ye1dTQ6bPK-9" value="" style="html=1;verticalLabelPosition=bottom;align=center;labelBackgroundColor=#ffffff;verticalAlign=top;strokeWidth=2;strokeColor=#0080F0;shadow=0;dashed=0;shape=mxgraph.ios7.icons.most_viewed;pointerEvents=1" vertex="1" parent="1">
          <mxGeometry x="60" y="70" width="28.2" height="22.8" as="geometry" />
        </mxCell>
        <mxCell id="MS3aq6HGt0ye1dTQ6bPK-10" style="rounded=0;orthogonalLoop=1;jettySize=auto;html=1;entryX=-0.071;entryY=0.57;entryDx=0;entryDy=0;entryPerimeter=0;" edge="1" parent="1" source="MS3aq6HGt0ye1dTQ6bPK-2" target="MS3aq6HGt0ye1dTQ6bPK-9">
          <mxGeometry relative="1" as="geometry">
            <mxPoint x="40" y="320" as="targetPoint" />
          </mxGeometry>
        </mxCell>
        <mxCell id="MS3aq6HGt0ye1dTQ6bPK-12" style="rounded=0;orthogonalLoop=1;jettySize=auto;html=1;exitX=1;exitY=0.5;exitDx=0;exitDy=0;entryX=0;entryY=0.25;entryDx=0;entryDy=0;" edge="1" parent="1" source="MS3aq6HGt0ye1dTQ6bPK-11" target="MS3aq6HGt0ye1dTQ6bPK-1">
          <mxGeometry relative="1" as="geometry" />
        </mxCell>
        <mxCell id="MS3aq6HGt0ye1dTQ6bPK-11" value="Active viewport" style="text;html=1;align=center;verticalAlign=middle;whiteSpace=wrap;rounded=0;" vertex="1" parent="1">
          <mxGeometry x="-100" y="210" width="90" height="30" as="geometry" />
        </mxCell>
        <mxCell id="MS3aq6HGt0ye1dTQ6bPK-14" value="search" style="rounded=1;whiteSpace=wrap;html=1;align=left;spacingLeft=16;" vertex="1" parent="1">
          <mxGeometry x="88" y="120" width="652" height="60" as="geometry" />
        </mxCell>
        <mxCell id="MS3aq6HGt0ye1dTQ6bPK-13" value="" style="html=1;verticalLabelPosition=bottom;align=center;labelBackgroundColor=#ffffff;verticalAlign=top;strokeWidth=2;strokeColor=#0080F0;shadow=0;dashed=0;shape=mxgraph.ios7.icons.looking_glass;" vertex="1" parent="1">
          <mxGeometry x="700" y="135" width="30" height="30" as="geometry" />
        </mxCell>
        <mxCell id="MS3aq6HGt0ye1dTQ6bPK-15" value="About Me" style="text;html=1;align=left;verticalAlign=middle;whiteSpace=wrap;rounded=0;" vertex="1" parent="1">
          <mxGeometry x="88" y="220" width="652" height="30" as="geometry" />
        </mxCell>
        <mxCell id="MS3aq6HGt0ye1dTQ6bPK-16" value="Resume" style="text;html=1;align=left;verticalAlign=middle;whiteSpace=wrap;rounded=0;" vertex="1" parent="1">
          <mxGeometry x="88" y="250" width="652" height="30" as="geometry" />
        </mxCell>
        <mxCell id="MS3aq6HGt0ye1dTQ6bPK-17" value="Projects" style="text;html=1;align=left;verticalAlign=middle;whiteSpace=wrap;rounded=0;" vertex="1" parent="1">
          <mxGeometry x="88" y="280" width="652" height="30" as="geometry" />
        </mxCell>
        <mxCell id="MS3aq6HGt0ye1dTQ6bPK-18" value="" style="endArrow=none;html=1;rounded=0;entryX=1;entryY=1;entryDx=0;entryDy=0;exitX=0;exitY=1;exitDx=0;exitDy=0;" edge="1" parent="1" source="MS3aq6HGt0ye1dTQ6bPK-17" target="MS3aq6HGt0ye1dTQ6bPK-17">
          <mxGeometry width="50" height="50" relative="1" as="geometry">
            <mxPoint x="88.19999999999999" y="320" as="sourcePoint" />
            <mxPoint x="148.2" y="320" as="targetPoint" />
          </mxGeometry>
        </mxCell>
        <mxCell id="MS3aq6HGt0ye1dTQ6bPK-19" value="Blog" style="text;html=1;align=left;verticalAlign=middle;whiteSpace=wrap;rounded=0;fontStyle=1" vertex="1" parent="1">
          <mxGeometry x="88" y="310" width="60" height="30" as="geometry" />
        </mxCell>
        <mxCell id="MS3aq6HGt0ye1dTQ6bPK-20" value="Hello, World" style="text;html=1;align=left;verticalAlign=middle;whiteSpace=wrap;rounded=0;" vertex="1" parent="1">
          <mxGeometry x="110" y="340" width="540" height="30" as="geometry" />
        </mxCell>
        <mxCell id="MS3aq6HGt0ye1dTQ6bPK-21" value="Jan 18, 2025" style="text;html=1;align=right;verticalAlign=middle;whiteSpace=wrap;rounded=0;" vertex="1" parent="1">
          <mxGeometry x="650" y="340" width="90" height="30" as="geometry" />
        </mxCell>
        <mxCell id="MS3aq6HGt0ye1dTQ6bPK-22" value="Lorem Ipsum" style="text;html=1;align=left;verticalAlign=middle;whiteSpace=wrap;rounded=0;" vertex="1" parent="1">
          <mxGeometry x="110" y="370" width="540" height="30" as="geometry" />
        </mxCell>
        <mxCell id="MS3aq6HGt0ye1dTQ6bPK-23" value="Jan 16, 2024" style="text;html=1;align=right;verticalAlign=middle;whiteSpace=wrap;rounded=0;" vertex="1" parent="1">
          <mxGeometry x="650" y="370" width="90" height="30" as="geometry" />
        </mxCell>
      </root>
    </mxGraphModel>
  </diagram>
</mxfile>
